,
.   http://www.scenetime.com/signup.php  ---&gt;  Hottest scene tracker on the net !!! 
Scenetime lucky draw is started , join now and be the winner . offer is limited 

    Join Now   http://www.scenetime.com/signup.php

    seed back for speed


 



...................................NFO:.................................................                                                                                                     
       
     
     
       
       
     
     
                                         
                                         
                EXVID                    
                                         
         
                                         
         Filled the Archives             
                                         
         
                                         
                With:                    
                                         
         
                                         
                                    
     E240                           
                                    
     SP               (C) 2009      
                                         
     
     
     
                                                                                  
                                                                                   
                    The.Raid.1954.DVDRip.XviD-EXViD                                 
                                                                                   
                                                                                  
     
                                                                                               
EXViD aims to iNTERNAL those releases which have been lost in the archives.
EXViD aims to PRE non-internal releases which have poor sources and are likely skipped by others. 
http://www.imdb.com/title/tt0047388/
Subtitles: none
Date: 2011.12

Director: Hugo Fregonese

Genre: War | Action | Drama

Plot:
A group of confederate prisoners escape to Canada and plan to rob the banks and set fire to
the small town of Saint Albans in Vermont. To get the lie of the land, their leader spends a
few days in the town and finds he is getting drawn into its life and especially into that of
an attractive widow and her son.

Cast:
Van Heflin	 ...	Maj. Neal Benton
Anne Bancroft	 ...	Katy Bishop
Richard Boone	 ...	Capt. Lionel Foster
Lee Marvin	 ...	Lt. Keating
Tommy Rettig	 ...	Larry Bishop
Peter Graves	 ...	Capt. Frank Dwyer
Douglas Spencer	 ...	Rev. Lucas
Paul Cavanagh	 ...	Col. Tucker
Will Wright	 ...	Josiah Anderson
James Best	 ...	Lt. Robinson
John Dierkes	 ...	Cpl. Fred Deane
Helen Ford	 ...	Delphine Coates

Stats:
Format                           : AVI
Format/Info                      : Audio Video Interleave
File size                        : 700 MiB
Duration                         : 1h 19mn
Overall bit rate                 : 1 239 Kbps
Writing application              : Nandub v1.0rc2
Writing library                  : Nandub build 1852/release

Video
ID                               : 0
Format                           : MPEG-4 Visual
Format profile                   : Advanced Simple@L5
Format settings, BVOP            : 2
Format settings, QPel            : No
Format settings, GMC             : No warppoints
Format settings, Matrix          : Default (H.263)
Codec ID                         : XVID
Codec ID/Hint                    : XviD
Duration                         : 1h 19mn
Bit rate                         : 1 155 Kbps
Width                            : 560 pixels
Height                           : 432 pixels
Display aspect ratio             : 1.296
Frame rate                       : 25.000 fps
Color space                      : YUV
Chroma subsampling               : 4:2:0
Bit depth                        : 8 bits
Scan type                        : Progressive
Compression mode                 : Lossy
Bits/(Pixel*Frame)               : 0.191
Stream size                      : 653 MiB (93%)
Writing library                  : XviD 64

Audio
ID                               : 1
Format                           : MPEG Audio
Format version                   : Version 1
Format profile                   : Layer 3
Codec ID                         : 55
Codec ID/Hint                    : MP3
Duration                         : 1h 19mn
Bit rate mode                    : Variable
Bit rate                         : 71.3 Kbps
Nominal bit rate                 : 80.0 Kbps
Channel(s)                       : 1 channel
Sampling rate                    : 48.0 KHz
Compression mode                 : Lossy
Stream size                      : 40.3 MiB (6%)
Alignment                        : Aligned on interleaves
Interleave, duration             : 24 ms (0.60 video frame)
Interleave, preload duration     : 538 ms
Writing library                  : LAME3.98r
Encoding settings                : -m m -V 4 -q 3 -lowpass 20.3 --abr 80

Release notes:
Ripped from the French DVD that came out this year.

enjoy!

Looking for:
75TB+ Archives
DUTCH/FLEMiSH Archives
                                                                                                    
Greets: CRBS EPiSODE FiCO FLS iLS KLASSiGER LiPSYNC MADE NODLABS RUNNER SPRiNTER      
   

                                                                    ASCII DONE BY XX^NFO 2oo9